<svg xmlns="http://www.w3.org/2000/svg" viewBox="0 0 64 64">
  <!-- Fond avec léger dégradé -->
  <defs>
    <radialGradient id="grad" cx="50%" cy="50%" r="50%" fx="50%" fy="50%">
      <stop offset="0%" style="stop-color:#BB70AD;stop-opacity:0.2" />
      <stop offset="100%" style="stop-color:#BB70AD;stop-opacity:0" />
    </radialGradient>
  </defs>
  <circle cx="32" cy="32" r="30" fill="url(#grad)" />
  
  <!-- Trophée simplifié -->
  <g>
    <!-- Base du trophée -->
    <rect x="24" y="46" width="16" height="4" fill="#FFD700"/>
    <rect x="27" y="50" width="10" height="6" fill="#FFD700"/>
    
    <!-- Socle -->
    <rect x="22" y="56" width="20" height="3" fill="#FFD700"/>
    
    <!-- Corps du trophée -->
    <path d="M25 15 L25 44 L39 44 L39 15 L25 15 Z" fill="#FFD700"/>
    
    <!-- Anses du trophée -->
    <path d="M25 15 C18 15 16 22 16 30 C16 38 18 40 25 40" fill="none" stroke="#FFD700" stroke-width="3"/>
    <path d="M39 15 C46 15 48 22 48 30 C48 38 46 40 39 40" fill="none" stroke="#FFD700" stroke-width="3"/>
    
    <!-- Haut du trophée -->
    <path d="M25 15 C25 10 39 10 39 15" fill="#FFD700"/>
  </g>
  
  <!-- Raquettes -->
  <rect x="6" y="24" width="3" height="16" fill="white" rx="1"/>
  <rect x="55" y="24" width="3" height="16" fill="white" rx="1"/>
  
  <!-- Balle -->
  <circle cx="32" cy="24" r="3" fill="white"/>
  
  <!-- Lignes de tournoi simplifiées et moins visibles -->
  <line x1="12" y1="20" x2="20" y2="20" stroke="white" stroke-width="1" opacity="0.6"/>
  <line x1="12" y1="44" x2="20" y2="44" stroke="white" stroke-width="1" opacity="0.6"/>
  <line x1="12" y1="20" x2="12" y2="44" stroke="white" stroke-width="1" opacity="0.6"/>
  
  <line x1="44" y1="20" x2="52" y2="20" stroke="white" stroke-width="1" opacity="0.6"/>
  <line x1="44" y1="44" x2="52" y2="44" stroke="white" stroke-width="1" opacity="0.6"/>
  <line x1="52" y1="20" x2="52" y2="44" stroke="white" stroke-width="1" opacity="0.6"/>
</svg>